<mxfile host="Electron" agent="Mozilla/5.0 (Macintosh; Intel Mac OS X 10_15_7) AppleWebKit/537.36 (KHTML, like Gecko) draw.io/26.2.2 Chrome/134.0.6998.178 Electron/35.1.2 Safari/537.36" version="26.2.2">
  <diagram name="Page-1" id="uPOgMuU-cbQKCk6CpJRN">
    <mxGraphModel dx="916" dy="605" grid="1" gridSize="10" guides="1" tooltips="1" connect="1" arrows="1" fold="1" page="1" pageScale="1" pageWidth="850" pageHeight="1100" math="0" shadow="0">
      <root>
        <mxCell id="0" />
        <mxCell id="1" parent="0" />
        <mxCell id="GpMwV1XRbYQ0-7hNmBUH-1" value="" style="shape=image;verticalLabelPosition=bottom;labelBackgroundColor=default;verticalAlign=top;aspect=fixed;imageAspect=0;image=data:image/png,iVBORw0KGgoAAAANSUhEUgAAAOAAAADgCAYAAAAaLWrhAAAAAXNSR0IArs4c6QAAAERlWElmTU0AKgAAAAgAAYdpAAQAAAABAAAAGgAAAAAAA6ABAAMAAAABAAEAAKACAAQAAAABAAAA4KADAAQAAAABAAAA4AAAAACiWSQ0AABAAElEQVR4Ae2dB5xU5dX/zy7swi4dlqYg0lUQFRHFioKKvUYjNkx81dRX8yZRkzc9Jq/5JzGxJPZeorEHG4qiYEMQpFlAZAGpS2fZZZeF//k+8OiwTLkzc+e5d4Z7Ph+Y2Zk79z7tPOc8p/xO0TYliSgagWgEAhmB4kCeGj00GoFoBMwIRAwYLYRoBAIcgaYBPjt6dJIRaGhokFdffVXWrF4tTZo0SXJl8q/22msvOWzYsOQXRd8GNgIRAwY29MkfvHnzZnn8scfkrTfflObNmye/OMG3W7ZskXO+8Y2IAROMTxg+jhgwDLOQoA0wUIP+y8ROtlUlKL+PKNwjEJ0Bwz0/0qRpZntkcRZqa8iHpKCaFzFgQU1n1Jl8G4GIAfNtxqL2FtQIRAxYUNMZdSbfRiBiwHybsai9BTUCEQMW1HRGncm3EYgYMN9mLGpvQY1AxIAFNZ1RZ/JtBCIGzLcZi9pbUCMQMWBBTWfUmXwbgYgB823GovYW1AhEDFhQ0xl1Jt9GIGLAfJuxqL0FNQIRAxbUdEadybcRyCzUPt966ai9JNFu3LhRyOWb//nnUlpaKgcceGBWCbWOmp7wMXV1dTJr5kzzfbfu3aVly5bSrFmzvO5Tws4G8EXEgFkOOgt07dq1sloz1z9Xpntj/Hj57LPP5PN58+TCiy+Wgfvvn9eLtaamRt7UpODHHnlEunTtapJ72VR69+4t7du3l7Zt25qNJsth3G1/HjFgBlNvJR1MNkOlw2effirz5s6V5cuXy8oVK8wdeSUpthAIJly4cKGR7vT5lZdfFqAu+vfvL/3036ADDpCuypxt2rQphO467UPEgGkO9yeffCIzPvpI5ulC/HjOHJkze7bU1taarHUY0+K3ZJpIm2ZznF3eXNVOiCz7ZUuXmo3mw6lTpUWLFjJg4EDDhDDjgAEDZO+99zbXRv+lHoGIAVOM0aZNm2SFSrPJ778vX375pbzx+usye9Ysqa6uNouvqWasf8V0u0EWuu0rwwZUxrp16wxuzUsvvmjG4+hjjvmKGQ855JBIRU2xviIGjDNASDIMKahdr44bJ5ULFphFxt+oWRgh+BeRmM0HprTjAYgUzLjvfvvJwQcfLAMHDZLDDjvMqKyR8WbXFRMxYKMxwaiCavW6Srq5akzBqAI1U2QyjA4RJR8BuzktUW0BFb1Dhw4y9NBDjVQ8RqVjvluFk/c+/W8jBowZs/fefVfuuP12WaASjwXEeadczzgRpT8CSEU2LMYQqfju22/L8889Z6Ti6AsvlMEqHSMS2a0d8aianO8ee/RR6a2Gg9NOPtksFpgvVq2KFkrmI2DHEZQ2xvXJJ56Qg4cMMeP9slpTOUPuzrTbSkAY74MPPpBbb77ZuBFQnTp26rQ7r4Wc9x1mRKPYt18/86yrLr9cjh0xQs6/4AIZPHiwdNoNx3+3Y0Csmu++846M17Pda2pgYQe2BoScr8DoATuNAMz4jqqmqPwjlBFHHn+8UU2JINpdaLdiQIwrqD2c9XAocz5hV44ouBFg/JeqasoxYPLkyXL8CSeYf/vss09wjXL45IJnQM55lZWV8tyzzxof3ozp0w3adGQSd7jKUjyK8yE+Rfyr/MP1AyOe/81vFrxaWtAMiHpJ2BR+KaJXCJSOrJopuCHAr+1R4FONNiLaBo3lBz/8ofTu06dgw9wKkgHx5S1ZskSeefppefaZZ6Tyiy+MHy9SNwPkrjQezTyxebJxEnF08qmnyvDhw6W7ZmMU2hwWHANaI8vDDz0k77/3ngmIjqReGqs/JJfCaPgRp06ZYtTS9/XcfumYMXLI0KEFxYQFw4Cc9RYtWiQPP/ig3HfvvaasF4wXVQkKCUdl2AzUUoxlL73wgox75RW5+kc/ktNOP71gAr4LggFt+NgD999vJoqwMXueyHDeo5+FaASQhmymbLK3qd+W2NxCiabJewaE+R5VE/bTTz5pVJVI3QwR5/jcFBgRJvzP88+bQPlztfrveeef7/NT3N4urxkQ5vvZddeZ8LHIoe524QT1NGuE+UjdSQvUuEYS9He/9728PRfmJQOyCzIBt6g6QrYCKqedmKAWRvRctyPAfLPp/u2vfzUq6eVXXCF9+/bNu3WQdwzIoE+aNEkeuO8+w4SRyul24YfpaXbTxV2BJPzm6NFy7LHHSnl5eZiambQtecWABFC/qIP9+GOPGdQxOwFJexh9WdAjwBrASgpiweLFi01fycTPl8DuvElHImD38X/9S/7f//1fxHwFzVLpdw4m5N9CDTn885/+ZDZpNut8oLyQgAAhPfjAA/LUv/9txjSSfPmwtNy3EdcTTHjL3/4maxQm8sKLLgq9JAy9BETykcT5nIaUQRHzuV/Y+fREmJCYXwIyHnn4YSEyKswUagmIweXOO+4wzBelDoV5GYWrbWzSMCHJ1qDWfVsTf8NqmAmtBIT5btTzHgaXfGI+XCT8W15VJZsU0LYQCIBhgqLpV74QTAjz3f6Pfxicn7BKwlBKQNROdi+yGUp0EPMhnpPFuVkBejt17iwdKipMvOK5556b97Dt1IIgUx1MVM7iK9TcDxBxPswLTMjmfeMf/yhfqoX0+5raFDbQ4NAxIJP895tukjcnTMiLeE4Yj4nupbUSKpTx8EXF1k3IF4mRqJ30DQQz+oda98LYsSZPj02STPZt+kOuCSvRNrBcCV9Dil97/fWhYsJQMSCTCvO9vgOLM8wTC3AvKk5/hU6gAMsRRx5pYNn32GOPvJd6jZkJjBb8avy75NJL5RTNz/v444/lbQ2ImPbhh8YtxG/COl+0i42SdbXnnnvKRZdcEhomDA0D4rd5VCvwkHISC/feeDEE/bc9B+3Vo4fBuDxJoQz3V/RnAGjDugD9HDOkCf96aP9xeIMsRzjgVM1exwUQ1rmzTAg2aTctLHPWWWeFIss+FAwI82EyflDDy8I6gRgiULdQxY444ghzLqIqUFita34yXbx7saCRiKeccophRCKUZs2YYQLjUVUZr7Cd3Wkzxr1/3HKL6VIYmDBwBsQ6xeQBHRHm80QLNUaceNJJBj4PiZcvoU7xmCcXn21Yv97k6IHziUSkiA1lzcJGMOGqVauMdb1jx45mAwmyjYEz4BtvvGEGY7Fms4ctiRZ1EyvaCSeeKOSeRYy361JljKgGTCwmSGZWIo7U9/fefbdMVliQsAXMs85o8x3//Kd07dIlUJj8QP2AWDwZBApchon5UJ8osLlad8qbb7tN/qKGoREjR0ZSb1f+M1WkKGQDkhkGGQjtYNSoUXLXPffI//z0p+YaKgjb83Oc2zj/CEkIBOJdd94p8+fPd/58+8DAGBDIuRt+9zuzc4aJ+bBudtZqr9f8+Mfypfq82NF313OeXSTJXjnvUUWK0m03/eUvO12KsQZYwXcVcPdbGo3C34xvWIh1B9bMr37xC+PjDKJdgTAgOw47zweqtoSl5Be7M4sDdfNGjai/+pprCs6dkIsFhhV02bJlMqx1B6mvWh13ISMRr1Xkgj/eeKMpzMJYh0Uaoh6jPuP+CiKDwjkDYnR5VC2edDosVjIYr4tKvcu+9S35ybXXGui7SOp5Y1d8gbVz58uw5q2kXfMyg2od75dIv+GaLHudOsIvVj9cmKQh6igl1O6+6654Tc/pZ84ZEIh4QszCYiHbpNER1Da/6jvfkSuuukp69eq1W/jz/FhVmPSXKgDy4CZl0ldKpM2WrSZKJlHcJQudAp2M83d/8APjOw2LSgo0/p1qj8Au4ZKcMiAi/no9lHNuCAOhBmE2v+EPfzDoWpFrIb1ZeVfBchfMniN9SppLD/23f9My+VijmSgDkIhgQsb54osvlptvvdVsfomuDeJz4kZdqqLOGJDdEhFfq+oekxAkwXhlZWVyuDrUiQ0k1jHoNgU5Hpk8G0Q6SlDL6rXSvkmJUFDsIGXAZWq4+kSt2qmI8T5s2DD58U9+Ys6FzEfQ58LmCu7F0Qi/NOvVBTlhQCaLIinPqurZVs8CQRKTzPnjrLPPNsy3u5TB8nvMwV/BfYT6WVG8fUNFCrar2Ww+97qAce9co2jXxx53nJB5ESQTYpMg0wOMWTYXF21xwoBYPUGuIgIhSMMLA8okX6wBxZxDIubLnC0Jxp6m5yXUz85FTcVmCh5X2kre+2i6qb/o9e5oIKQKnaPBDqR04YcNinBN4B98XrMnKHWQa8o5A6JPg+cyVjsUpL+Pwz6S77c33GCAXPPlvNegkThsHBn909/mgpBu4LJuXrDQqJ/2GaihR5a2lPkzZso8LYCajgQhTw9Xxa9//3tprfMUpHGGdXrX7bcbWAu0t1xSzkPRJmioGaWg22u2QFDEQjh4yBC59LLLAo/9S2cMkNYk92Z6Pm3Q35fr2cpvWqq1+6ZPmyZIu75Nmn0l/ZBbHZqWyFBVS6crg+J2SGejo5+jNZ+SGE0SsgkXy7Tv2faZ7BYyJ4YdfriJgsr2fol+n1MGRPUkERLVMyjpx046YOBAuVJVzqOOPjrROITuc8aLclzEoGZDe3brls3P4/72c2UMYOGHlDYzxpdYhbFlURMZ0rKtPKgB2adrFaN0GJCHkXt4vGbgw3i//PnPjTEkCCbkqER0D0cnCoQioXNBOWNARPdbb70lE9XBGVQwLpKvbdu28t9XX212MiY3X4hFh5UwbISPj2yHrus3SY/m7XdpHuaYTmqUqdXFu0rjPzMh5ulo3Sx/9dvfyqma/NtPU8CCYEKOLET6TFB0hvPOOy8nIYk5OQOy8Ccq82FNaqJZ40EQbSCT4TZ1rqIKRZEt/swCZ3qiRvqo471r8dfGF3t3GLB7cakMbtbCMGqmPjXmizjcv2p8KTmizKdrgumXq7r9osJwJPNtZtOunDAg1qPxukt+rgfxIFRPJovz0y9+/WsjRYLYPbOZlDD/FmlAzCfWzzaqbjYm2KSdWkX3ad7S5ASSBZENAa57oTrtkUZBMCGqKOsYq6hX10o6/fWdAVE9333nHYMXggQKgmA+/HxkPEfk7wgAE7l302bSRZksEaHod1XnfO28SoNGlug6L59zhqQYJ/mFQUlCIreIeaUokN/kOwOuXbvWxHqST+da8tgdcuihh8po3TnZNSPydwReVot2L1UxsXYmowElZdK7VRuZoTAV2UoODCBAPDKvQWzqrGPWM7mrfpPvDEi4GY5Mywx+NzjV/Y4ZPtxkNBBUHZG/IzD+tddkvxZtZahmPsRTP+3TUEPbq3rat2VrAzWCCpct4awnbJDwwaKiomxvl/bvWc+s6ycefzzt3yb7ga8MyIH7kYceMruUa+lH9AQQgf+lhRoj5ks25Zl9xwJ8Uovj9FPgYYwvXmj/5uVSXFMra9as8WVDJnJpjPpycQu4dtTb9YxbzU/nvK8MSPkwYulsY71Mkh/XMBk91VR9paYUsVNG5P8I4MudrxsseX/JpJ99MlJwUJNy2aLpXu9rgDO/94Pw5V6kRplu3bs7D1kDDRzoDSA4/CLfGBA9H9eDa0Ly4esjk/1IBceNyP8RYMfHHzaz8gs5rKn36rMYY9pv2WYCm/1KQcNHiFsJZz0oei4JiyjQ/FMUYsMvKegbAz6jsIIzNPzItduBSSCSHqtnZHTJzXLE8DFNMXxKV1SZs106TzlCY0OrV1aZhZvO75Jdi2UUdGuMMiRUuyRSlkgo90sK+sKAnP0AZUX9dEmonmRYY6buripJRLkZATBfCD87p2zXyJdUTzxYcwSbV60RkncTZcqnuke875nv733/++YrlwY/pOAqrXwFqFimQQax/fGFAWfuQERupruDS1qvai+xkvvsu6/zc6fLfgb5LBb3FFU/P9D0I6yf6RDnwBIpkhaaI8iC9UsNpQ3YGUAmH63nwWzdHOn0iWtZ5+S3EiyeLWXNgHQeXw+6sUvjC9JvmJqkT1T8ySjMLNtlkPj3jDOlyZotXvJV4m3iq3f9huDsvuo3RA31Y8HGPoF5p1jMQYMHO7WKss4xxnAuzvYsmDUDkjkMrLxL6ceujC7+69/8Jjr3xa7IHLz/RCUfcZCntOpoQsyQaukQhhgAm1BDCefym3BN/LdCSLIeXBL2hqefeiprUN+sGNBax9gNXEo/jAIXUIdP/UER5XYEPlXYCXBSeu1IPcrkaa3VfL9l1RqZNXOmr+dA25bBKgGpUuWSWO/YPdicsjnbZsWAhJ2h27dQcFNXhPTDB3SyRspHVs/cjjpj/YXm/XVYWy1ttma2VOw5kOBsjitIVL8Jqyixop21zgNtdkWsezanbIwxmY2q9pCOYnwhYdGl64EgpDM1yJqimBHldgRwni/SvL7hbSoM7GC8pc1n8+trZd22eN9ubx9haQNKy2Vr1Sp5++23c9Jo8gfJXncZK4raS11EQu0yZfyMGZDJIeWouWZuuyJreMHnl0/Jta7Gx+/nACfy6nP/MZkNnOUS0aS6jfLcJg03S3SBfg5yWtdN9b6Z7xs/CoMM5QQonMo6cUG4JJaogQo+yDTSJ2MGxKJFNRxXh192GJ6Frp8reAAXk5Yvz0BdxPq5X1Fp0tSjjSr5ljZvKpObbpE127bIrhmCqi1pp8kRPKplewPc67c11I4pqigl0sBzyVQi2Xul8zpv7lzJNO8xIwZkcjDB4npwGQ6E0QW3Q0S5HwHUKvI6yWjopcm38aQbzDZ/62ZZVlcrq7dtlUVbEyOIIUG7KXtu2AHcmysGOfucc0ydD5eq6HLtE8aYTFwSGTEg0e1zZs+Wak1UdGH9ZLIwuJytOWGR4SX3zMdCwvoJ8NLepWVxpZptxczaTbJM2ZPaCuMkMQNyPdbQPg1F8qaqtrnC3NxL678Tmkh8cK6Y3PadV9Z/1cqVBgUuE6bPiAGXKU7GAq0B4JJINRo+fLjLR+62z1qiBVemTpligJf20+z3RAS7oX6Sg3mmnsvnlRbJ8iRqaIWqocSGvqGWQ9ZQLoiz4DHHHOPURQXjoYaCopYupc2A7I5g/xMP54Ks9CPwFh0/otyPAJWBP9OimxXbmuyEeh37ZNTPuQ3b1c+jdcEDQQiG6Zu1G2Iv2+k9v+mhUTHA17OGMlHZdrphgj9wU/Xp29dAWCS4xPePUUPf03Lc6VLaDEhZMRyQ1RqFjhXIBVG77wgNO4tCznI/2jDFDHWYb1i2XPo3Sw7qW6lnvoZOHczG2EvzMbuoH27mlho9D8Y7MW5vO9ZQZQ2jhuJHzgWhfrIp4KdzAXNv1dD3NeA8XUqbATn/we1Aprsg/H79+vULFFnbRT/D8gw2WBZS180NJoQsUbtQP5fXbRbOXID/suiP0Ty9hTUbjWEm3tZsraE45V+e8Iavwdmx7cRFhaWcjbve0TolEwircbqUNgNiGUPXdWH9RP2kTgCuhyjdKN2pzex6YOfnaHxvn7ptCZ3vVv38YMMaGaGJsUCAsOhBoVtSUiwYZhKZY/gtTvmuqzbIF4qcniuiTSAkkDHjgkBsM5E+GpaZDqXNgICyukQ8Yxdjh3VhbU1n4Ar12iefeEKarFhlYj/jSTH6DXOhfq5o2Uy669zYoAhq/F02+kKBMSs1OiYRgSkzqGMneVjxg7KJo0x0fz6nTb1VLaYmiStrKCC+rypqXDqUNgPi8XfRITrBjoJjtasyYURuRoCCJL2LSwy6dbwnwpQ43z/dXCOHqGGsZwz6HIse+MCFbVvIXKmP93PzGZgyvcpbyv0PPij19YmvS3gDj1+wbk5T4xAlz1wQaigaRDqUFgNSP3ul+jxcgcItV0vrIYccEvn+0pnRLK4lsB7jGvl7RK4kolVb6s05DwCsHhr6FUtYIE9SA8iUjWtNjGg8Kcpn/YubG4hDkn1zZQ3FZ4z1nD65IMowrFEkcASHV0qLAQk9Q6d2df47WkGWOikMXkRuRuDFF16QztuKjfElHuPQCtRPpFt1u9amvnvjowFhYDjCpxbVy7rirXEbjjGGsmZAHAJ1mCtrKA/HSER8qAutjXMg/nFTujtuz3f9MC0GBBuEwWo86LveNvtPUBtAvmJCI8r9CLBAwX2pqK1PinqN+ol0o+QbZ6zGxNoAKoLv56uVNJExxiCmqZTFcugnVEXj9rCBu0LUpu8LKytNClfjdiT6Oy0GRP105X6o1Yj2fv37R+pnopnz+fO5GslRuXKFHNuinQAjEY/4tF71n7myxTBZorM5Umfo0KEySTYnDNDm/keVbc8RxBqaKzW0mxqJDtUyb87WrQqOzepL9UqeGRBrFfqtC2I3RvIxkRG5GQGiOKZqdEo/DbyOz37b2zFVHe2t9+pmNkeK4MQjAiYO0vPhijYtTYB2PLc8nx2kwL3EUYIphP8xF4RhiIq7LbStLtRQGJ0UJa8bSuKTdqPRwPeHBdRFvT/Uz8NHjEh4/iMD+UM9jyYbUNQBkIyh2Ix9azK3RUP5u7i4eKcoG5tgXFKyvQAJuj3EPflXaMTm+pky34lbmiQ1vtDvxzZWyYFDjpZ9UyDRAZJ81EEHyYRxE6R769K4IW2MZD81gmL8OePMM3Om7aAqoxIT35rr+QMbiTMg8bRe0uY8MyDpFkTH28WY60WIhY3QpnjEmYFO/uF3v5OqZOFMGpvYpbxMmpWVS8vWraXljnrp5S3KpaRZc+mkOzW7OAxa2qyZeZTd1fFp2b620t9CzZRZ400gu6slvreMz2fm3vo7CKYnpxEJwXPCElrH3L730XS5pHWHpNKPPsxvWiSX6Bkv0dxwDYQFkiPE029NlKqtDdK5SfyldkZ5W3laDXvEnmJRjTe+2++Y+f9oUoMGDTIMmPldvP2S9iOsiKf1lQE3qYpA/p+VHN6ak9lVLFJiCxMtUKIcAGUdprr9hRdcYB5yXFkbOUJBYBOSajg1G3eoOSsTqzsbirbJRlUjFq//2pS8qXmJrK7dLNUNdbJmU42ebLbT5pbbn7elabHRDBq03ZbqyptL+6alhuktw/PdHsrM9I9YxTDg2qBFgPsy54Mp0qZTX2WA7Qm0th+xr7M1+Lp7hwoz7lZLiP2+8XukGoh5s1dslK6aNRGvpkSv4may5vP5Bu6d+cxFuhnrqJsyIeNO2lSuabEWqPVdBd2wfr0T9ZMFwSSkgrpAdaSG+iNaMPK2W2+Vee9Olq4KHHRmWTtJCJ8Qoz3GO5cwMeZzNE+9D4TVz9B2IWiMENs/2Pn/9Y1iDuvq1Vuq6lWNRv7L6s1S07BVthThQdVUn01r5XqNKOrZs2fgdeA5VpB8O0qz1an5l2hc6O24mnXSq8feZnP0IqnYKDurFXLmkpVyjLQy0jX2/vY9UBVYYGlLLhiQthOxgzaCj85L2/lNpjRfLaFrPfoC4+sFmT7Zh9+RW0XuH+FnXggmJFztYY2qALP/kzWL5IKWHU0Wt5ffN74mhkfNV7G7duPvYn/buWT7UNpFFfsdv2vY8WNeupU3kRmVHxtUAVRtey6N/Y2r98BDjB0/Xq5q2c7UfYjXftrC5wvWr5YzT7giLdfQyaeeKg8sqJRFm+ukIo4ayvhieX116TJ5Xw1BMK1X6eFljOzYsp5Il0rHSe7l/vGuqdDAdPzlCJNUzO6JAWl0uiE28Rrm5TOsSN1VXUhk4o53D3RtinW00Y7jTH5QSyOfUdzWlMdKxjTx7pXss0SLM9lv+K7x75A0x3btbowP+FWDynNkgZCXV/XpXCnr2DNhN2j/jIZNMnflUhMamGpRxd6IJOoXx46VmR99JoP07N14PvibctdrKxfJuFdeScuEH/ucxu85r4OYDXAv1L59e2nVqpWT2pUYKjmy+caApCAtVauONUo07qyff9N4mM8aQ7zeGyYEphyVhyKKD06ZJqOaNsiJJbuqPl7vmYvrWMzA9HVWoNuXdMcH2pFyW+ksar/ahTGL3M4jy1qZopuNN4rY55DhsEg/6KuJrukQmwvJsQvmL5Q1DVviWkOBqjiorqks/XCmjJv5cTq33+naZdUbZV3ZdkMZGfojRo786nvcWq6COjg+4YrAtWIl8FcNafTGkwTEokOIjQvioIzVMZMFyfkBzFCsXoQ43fTUkyJqoKRCT2fdZZMtMBd9i30GmeEV6zYZH9iQgOJdOfu9ocUmz9DAaDaFROPDOXi9Wj+PPWlU2vOCsQaD0ydTP5SpX66Wk3VDjCWeSdzpyWoNNedoa+GKvcjD+2UKhfGGRvEsL9oqZ+gaoGJWrGbBekKzirVQe7htRpcgRMBT9QKP6IkB0cnRaTNhinR6QPYy+X+pTNzJ7mmNM/vut58MVNPz9b/6pZxa3k5GNm1p4g8bq0DJ7pWr71h0+2gs5CGt2hnkMTBMXFf25VhhQHJXVMleHZKft+dv3SzzNm+Sa3/432kPCWsGNbBN1y7y0rz5MnKHRhJ7I+aEDdKeo2O/S/WesQQY+I3qNbKgorVcpVoQmlA8Y04fR6UM0BRJXPCSauUpEoZochDQck0YiPGpddLIhWyJCRgzZoz88Te/leW9u8ujtavl7frqpAjO2T4znd+z6EAcW6kGCiAgvExWOvdPdS0WR5DtepeUCa6ARNLPLHCN6VxSvO2r81Sqezf+vl27dmaD2dJS05TUlRFvE+Q56f4j4OsTvd+DOre1+/eX7/7gB/Ltyy+Py3y0CQYERiXXMBVsOl+occtLvUxPDEjjvdyM67IhLKCooCRR+kUw4c9+/nNpf/hQeWLrBnmtdr1UJUDu8uuZXu9jEMdWrzXnsGzqC3h9nr0O4wDxl2S+Aw+B+pmIUD+XalbDcSNGCIyUCbEZgunTsmtnmaygTYmYPZ17cw+Y+fbqFVJy0EAzx6O1YE8i3zH3tusq955ATVjWM6AX8qSCgquBFHThhCf8K9kgeulU42twVbTVxfP3m26SRxVqfWHdJjlUHfftm5RI6dZtBq+S31BMkkDkhH7ExjdO8neqRcb3qF1In3QiJ5I80vNXGF+Iv9y6boNmvn8dPND4BrDl0q0Kuafq53c0xShdw1js/Vj8GMrmq4WaDTDTMzltssx328qFUte/l1x3/fWeVHg2kFxLv9g+eymf7YkB2TEJ+eroABYQS1U2Ex07ALHvOYf884475AXNkP7Xo4/KA4sXy0a1Uq3esj1yvXTT11nTm2s2mZ+WFxVL621F0lb9V631X7O6LVKucaMddmBlYsksk2JpVVykr8q4yswQVj0MC4nlirnM/EdGwD2z58jLWnGVSr9+bz5fP+nrd7iUwPbpuq5ahrRrn1QizdbNamVFO6O+ZWMDgPkuHTNGLtINcKpW2sU6nS4xniCuocU80bBBhp14nNxx110pLY32OYQXQkX2gxy/evFnemJA2olz0QWhgubS3UGOIYHEhNUh1Ul74nzLJkMaCRE/qMI2Op8dE58OVMe1+hvYEymySP+u2qR/V28yzLxRf9tMf9tpa6mcV9xKjihpkZQJ2cmRgPuo7J2rsZDcM9cMSD+xaG9Zv0EOVNj5ZMTWhPpJULVV35Jdn+o7cvP6HrC/fPr5l3JY0/K4oWmJ7mGZjyIwk8uK5exTviFXXHmlZ+bjvhjo0OZyub5i289aSUUpGZAJc2GAsQ2NDV62n/n5yiQQbRELpUAfGxNMCFnMkliTMozC7rZW/aOxTAyjwsBjFXp9wazP5YCmzVMuMlvC+T2NBMEnGOu7atwmP/6mH1MmTzaO7/6lic90LHisiytUQzhLVfg99tgj68dj3Sb+9d6/3CQnbOUIkNj1Efsw2gLi9osawjexdYlB4cbNgFRNl3BDuDgDehVYKRmQDsZboOl23Ov1NivB6/WZXherTsW+t/dL5kC1/qV448ICx4/5zKwbzfkp1SJjceETfFkjQShzlWsGxNhD3YeeDcVJne9sSYtVOV3autzk0yUbDztmqV6R7mD8PFTRXipr62SAumLofyJCAhsjkJ5DX9I0qDntW8rF6mIAaCkT5uM5uLlchKPxLC+YpJ4YMJ0MXx6cKblSDTJtX+PfxWNcFtkgLR7653atZLY62geUbU9zavzb2L+B6Ttoa1NT7o3FEc+HFXt9Nu8nTJggiz/9TM5TbM7YONfYe8IUnLUW1NXIwUcOMyp77PfZvCfL5fQzzpDH7rlP5pZvP38nul910+3sSfWlioP3l19ddpmBKclmM8DNhQbjguJt0I2fm5IBvdyk8U0z/duqfZn+Piy/AxlslCakLn1pvFnIiRa6bS9qaB/NRJ+8dLm8osaY884/337l+yuo163XbZQuSdRPHor1c/q6KjlVc/pi1fVsG4SRjUq2SOEtqg5y5rf5mOVqJMFPFy8Xcx9thx+B6zwvTJSSAV03lknId0JFJQrnnpde9qSG4vYgILl9zQZT5ipXDIh0xQCznxp9CAhPRMglgHfrunSSPffc09cIKLQGQu8snihoBFCs8Sk21xC3FJpRNlLPPGDHf9yvqKjISV5g7HMTvU/JgPHUrEQ38+Nza3H0415B3oP8s/pOHaWyalPKEDjOWzBEn7oSE0M4X53kGIr8pkmTJkntqtUmAicZ8BL13qn70LJXV+N+8LsdqNi5VLOTtRejmouk3GRtiP3OUyQMqR0uKN/OgMnGhF3+OFW15mxanxQZzN6DaJSh6h+bqPgo5MXlgt5WBmxYvMxUqk02owDvztNs4gEDBsgBBx6Yi6YEdk+XIX9ehJcnBnQ1WpwB8bUVArHDg4nykapyn6k5f1dHx669pHTXXmurDUSEFyfurndI/AnWT1DthrepSJr5bq2f6xXRDDXayyJK/NTwfQMKmyu7hpfMi5QMyAS4ngRXA5Tr5YE1tMs+/WSeMiBqXTKTOwufCrIjO3SS196eJKihftIHCgE/cdo0U3QlmVGIdkzcuFq69e9nrLl+tiEM93IR00w/k4KFxQxESgbkWky3Xm8Yc++M3uLYLhQGHKgMiBqHOodal4pg0L2KS2Thhx/Jlxoq5ycBPVGyfKW0UdycRBsBn69Rh3eVglD1V+nd21H6jp/9THYv1pXLYw7W3VTkiQG5iVfPfqoHpvqeNBkbBpbq2rB/j+Xu4CFDZG2XCpmmgLbJvV7be0No2hmtKuSlF1/0zWGM5RPszdOat01Y88+OJSWmm+3d3QDr5iIm1z4niFf8f8SBuooF9WK59cSApNi7AORlUlARYsO+gpgoP58JLsl+mhz80dZaE9WRSPrwTNQ/1EPyBJ9UBvQLh8dkvr//vnQl+yNF5ybWq49QQ8YAs3V99EjRtKy/tuvKRSia18Z6YkBu5kWcen1ooutQDzATr3YEgZ+oHX5+DjzGfqqGrtaIGJzbXqiTRsa0X7zcRMZkq45jzFmk6mzv1euNrzHZ85HQK0q1hjslwRXEqNCIdYWj3wWhMXpJ3/PEgDCfqwgCzMQEORcK4VRGApKMCq6mF7IVZKlGbHdtL7+Ldw2oa+NffVWOaNc5qfrJsny/bqPZaHE9UPO90Miuq1xLdjZNSqL5poJyIxcSkAnfuGGDSVAtlMlnsjFmYIx5W77OOUzWP3yC+5W3FspFf/Lxx1kZpTC+PKz5jx0VpTvV3j9Fc//AWCVdy8viSdaHMH4HBGO2GoWXfnHGZM69nKE9SUBEKROT68azWDHAFEo0jJ0sUnmoUUckPvDuqRiB3/XVcLHuajgFOClTKch84X44qnM343y37Yn3yvkT4F3QA1zB98VrRy4/owCNi3hj7BgcPWJD6hL1yxMDch4gJtCF9Yg0/nTKOyXqWJg+R5oQGQMysxc1FGboq8HZfTpUyMS33pJM8WKwKD/y1FMGfa2X3i8RsSFM2wG8O2rUKE87d6J7hfVzjjZg27qiHnvvLba6VrJnemJAzgNEdXjJb0r2MK/fgamYy7LFXtvh53U2GRUp48UdwbOHtGwrc3QsgI9IN4QK6Yf6+b4yMNAZqaSuBd4lkyPXZyQ/x9XrvdjE2JBcEL7sCt1sfZOA7OCuHJjUVwNTkcVTSES0//EnnCCvK7z72HrFWE3ROaQgGJo4z6lrl24OG9c/rwjhqJ/AP3C/RETu36otm+WG3/++II0v9HuZ4uCQDeJiHRO00k61Ri8bmScJSAdsjTze55JQc8Fr8VpdJpdt8fveQO4fevTRsq6u3pMUxGc3WHFlQE1jQ0rnDI4PcZbijfZtqdAPatRJRgDvfqDlqQ/Vc2ohGl/oO2OIgc8F9dDjmpc4UNrimQHJiHDhisBPAwaNrS7jYsBcPQOr2IXnnGMSXSs1PtQLgZoGeC/GFK8MiLo6TSsIs+sf2Cx1ONQKLaC5ukMrzxWpvLQ7TNfgC12umzpagReplG3bOet79Rp4ZkCSTEG18roIsu3EPK1b4Epnz7atXn/P5ANQixpKLQMv1F3xYtqu2SCVGk7m9VxMMMNMlX5sYgBDJSOb+zdq+LEF6Xyn74wb4+fCAgp/wCfg0Hohzwy4v6amgK3pohOcA7H+UWm00AgjxxgtpWYzJJL1j3Mb+KLDNE9w/qzZRgomu95+R+jZvLlzZZAWCUX9THT+QzElSPyDDWvk3PPO26mYib1XIbyivk/VWFgX5z/4A5+v10gizwyIbwixSv2+XBOSAp8NZdEKjdAkTjr5ZLPoCU1LfjoT8z2oadTPm6aLKBWhbuE7RG09SqveJiMYE+SzhW1bSFeN/yxUWqUhaAu1aq0L9ZMxxAVhkfNSjalnBqTxriADaTTqE6ZjVypvqoHy83uKhKzeq6vBXUkknezzYFCTqFvXYICMUvkECWTAAAPwkqk9YW8U5xX1E+Szk7Q6E5K5EAnLpzFgORAcjB9SNh2DpWcG5OZY8VwYYngWUSPEQhbaOZC+EaZ0+ogRMmXjWs+Jugdr/bwFM1Oroaif+FEPKG5u1NdEDG7Vz9frNphgca87Nu3PJ2I8Xh03zkk2D8ICJIR0gMXSYkAMCJ0dhKQxwTgxb7/zzoI8BzJJB2rA8+SyJjK7PnWeIMzSTZXR0mUrjBqaDK7iySeflFmT3pEBivuZLPWIYIC5mihc37mjyX5gzAuRVigExbuqkntximfbf85/5H9S8dgrpcWAZHi7RLMipQNraLIF57WjYbsONbS/Bj1jjAH9OdlZECnWQ0PJyGgATxP/XjxinMDUOUDPjKitiYhvyHz/dHONHKTlo20d9UTX5+vnuGM+1hJsrnJZsY9gJ0lHm0iLAXHSugzURQ2lhPIShzF8rhYbm9nBalWer6BNWCITqYq2PUgzEmopqsmmFI9gzNn6PZkUWE8T3ZPPKQeNAx7oiUxh3uO1IUyfcV4e98orzoQGjJ5uEZu0GJDBJVMah7KLOmscaAlLo0Z9oRGbGfG1VaXFxhKZiFli+91PpWC36s3ypRZ/jBcbSqXdZZ98Jq20pFoy9ZNnYf2kYm2h4b7EjheBCBSicWH95PxHzHS6MI5pM+BILe+1p4LOukjrJywNaygLC2tWodHJ6o5o17uXzFC4ClTCxErjdrgKilpiXPnPa6+aPMHY8WB8cN2gfsKoiciqnzyTJOFcF4NJ1I5cf470e00Tkb1GpPjRHhzwR2pJgnQobQakuIYrNZSwNMKH3tRyX4VoDeWsMHToUPl8a71UaTiYFymIGlr/RaVRQ2NdNFj7pqq24FX9rFaIDPBq0jmvpLOwgr6WIA78oQR1uCIyINK1kaTNgKifYIbwGrsActlJUL0+zjIzPJfty+beQ5QB2/boLlSi9cKASDcKek5WkKXYDAmMM1VffCGd1PiSSv3E+lmrVW+xxBYioQ2gNRHU74LgA/hhX4UeSZfSZkDMuUTNI25dEPr78mXLZKym1sQuOBfPdvGMwSqFOvfcW+aVFhlraLJnwqAYV7oraFMsahoL7gtlvsGbt5mKu6kYGetn09atTJJwsufl63doS+DguAq+Zpzgh+OOOy7tIUubAWEIKtsgbl0ROwzGmCmaEVBohDp/rE5cbdeOxiqZ7BxI3/ke8N6eGhkDZgyE+vnoc88ZxkyWemTPfzVadPNALTtNknChEWsFbYn0I5eEJXnQAQek/ci0GZAnIG67K+aFi+BWnmel4JP//jd/FhTRNyYOiTSxxlvhSMB7+zQrl2eeftqMBW6Jdhs2SsdtqdhXMWa2VBv1k1p7LpzTricL6Ye2tFwtoIxtrgmG59wH9GQm/JARA2JuPUKtPRUdOzo7B+L2mKNOVSRhoRGR833UIf5Fk62eEnUpLYYaSoAxiNecBzkXJrN+2jGbVlttmJ0d28UCtc919UreJGvEhZXe9gnAMkpvZ5LMnBED8iD8gdSwc5GeREexiOLXQe2K5wOzg5GPr3ZDW1dWKm/XVyd1R9A/9vX9pZkMbFchd2m43iRlwq5a8yGZ853fEX62rmmxDNLUMq/pMvwuXwhpxPrAZuBycwGwDCbMhDJiQB4E7NoxGvOGn84lvaqH6zfULVFIZDc0nOLTN1d76hqhaYOblMlLGrBevmylqXqU7IcwLcy9rVULU/cBpi80elnLe8/46CNnWhkMz3HsUIVybOcxAbfxmGfMgIAMHXbYYaaGHA1xQexqK9XBio6Pa6KQiEyToxQvBtS0uRofmur0wvcU9FxTXye91SjDuTDVb0g96rh3D5P7l4m6FObxRu1E+rm0fKL9sWlShi5d/58dy4wZkBuwaEZoWo3rKBXSlIDqK6QgbSaQc0Slzgh+Oi+0T5Nm0q2k1JwHE5WctvcB+WzuxvUyTKv2FlruH0cSUo6Qfi4J+EHGM5twvqwYkEVzkFrTeHURG2oHl53nzjvukMU+19Cz9w/qlSijwUcebuqze8EOReKNaiiV/hqeloy4jrSnzzesM85iV5FMydrk53fA92Mhdyn90Po4Rw9T9TNT6ccYZMWA3AD8i9NOP92UFeNvF4QqOmvGDHnu2WcLSgoSFnbuN74hLy9dJHM9QNij+J9R3k76qiRMpX4ubaiX5n16mMwHlwaKXK8HtC9yICs1EMFlv3ju6AsvzCj6JXZMsmbA7gplQBJirePa7h11sd74xz/6Xso5dnCCeI9xq7pbZ1mtDOOFqCeYivmQpgs11A2HP8eGQqJ3331XHn3oIU+lwPzsNzUzrfaXzX2zZkB2HYJ6j1ZckUyLiGTTgQcfeCDj2gnZPDdXv0UNHX3WWTJzTZUnn2CqdsCcYJDOUOBdCsRkoy6lepbr75FCf7/pJmcJt7Z/1C856ZRTTBUp+1mmr1kzIA/uq05kQps4lLokdPDnnnlGXtRqsoXiG0QNJUj637VrDOOkkm6pxhs1FQzSzzu3c5bFkqpNfnwP893y97+bfD/XET2sc1wP3TQtL1vyhQGRglTVQRK6cknYjmOQefyxx4xvsFCsosBV7D/sMGMNzdbBA/IZ0vTab31bwHYtBGKzfUV9fs9r/KtrgxLSDwxVcjn9cOX4woBMKrGFMKCryBi7kGB+YOfwASXCSrHX5ssrcBUjjzhSxq5aZlDTMm030hO4i3HbaqVnz57OF2um7U72OzZ43A1YPZGCrkpO2zZRKxPp51cepW8MSAPPPfdcE+DrWgrybOIhH33kkYI4D7KzwjAA5gLem6kUtOpn8726mQXj0krInOSC5iriN8zHZuu6P9g4iNkdPny4b13zlQGRglhEXQ8Mz0PyAuD0+L/+5TwwwLfZiLnRoRpl1KtXT5lcm3lFHxjwfa1Lf4iir2XjLI5pVqBvkXhoOgRiBLHJ03kQDAhk94t8ZUAa9b3vf19wEbgeIJiQIhwPqVX0GTXM5Pt5kED3wfvsKx821BhjTCYTDs7MBI3/ZGP0c9Fk0pZsfwPzYfF+TOvd8971Js965rx5xVVXZduVnX7vOwOSlk+qEkGqrglrGJPz4tixJk3H9fP9fh7axNLibRkZY5B+ixTysK5ThXR2hF7gd//t/dhMJ02aJC++8IIJ+HDNfLSDXL/TzzjDt7Of7ZvvDIif6XSNjAlK5WFyPpo+Xf76l7/kfcA2iGVgo85VRgK8Nx3iespO79+jZ1pIzek8w9W15Dze8c9/yhdqbHPtcqCPSD/W8+iLLvK9y74zIC0kw5vIftdqqB0dmJCyzpdefLH9KC9fsbSN1LLWK7bUGWNMOp2o15RU1Ndeeg+/LHbpPN+va9Forv3pT+VTzXZwbfGkD6xhtLmz1cDoh9+v8bjkhAFJVTr/m9+USy+7TFZraaggiJ2S+MCTTjwxry2jl1x6qaztUiHj1JjiVQZyHdATqK/EluYr4e8jb9EVvES8cUL1POvss+UsjU7yw+/X+Bk5YUAewq4LShRnwiBC1GgDPhvAan/1i1/kLZQFsZucqWs0Wz4VeC99xveH+rlI3Reor6TL5COR33eOLvpePXoEIvkYM5zuhO+drGFnuQrhyxkD0gGsb2drTfQg9HaeD/FszNZ3K3QDZ4l8I9QfGHBpM1Wrt9SkbD7SD98haitGHLSRfCJUPubJBNoHdOZjvGgHoL4UUyUwIleUUwZEZFPSDJ8Wu0lQhI/wJY0XBT8l30CdOM9SvbZVF62MpHieqQgGrFSjzfo2LU2AfKrrw/b9B1rLgXkisCIIa6cdj821tXKcJptTaiwXqqd9Tk4ZkIdQrIJdpIdGdgRplIEJqZTDzvqeprDkk58QCxypRKCmeYGrwGoKw7Lx5QsxH+Nfe03+cMMN8vr48bJtm0tcs51HiXW6r+a5cn7OtQEr5wzILsYucrwWdQmSaAfqKDvrHbffLhPfeitvMig4f1BJqaFTh6RwFTb1qLppExOxkS/Au1g6AdtiXmbPmhWo5IP5UPs59w1RiJBcU9NcP4D7s4sQQT5Z1QsGOMgzITvrO1q0g5QSkojZGHKpYvg1vhYGcvmyaVJX0iphEi54MpwXL9Tzd5Dj7LXfVDEinexpzWrH1RB0m9GUMLyA8pArw0vs2ORcAtqHUYX1Zz//ucxXMNmgCWmIs/43v/ylPKqhTfmgjhKaBgzk9HVVSeEqOCeifnJuDPIM5WWOGfe/aULtP265xTBf0O1F+gFYdemYMQLSgwtyxoB05jBN47jqiisCc0vEDiiTDabpT665Rn523XUmaiaoM2psuxK9R0p31wTQpe1aGSMLxpZYQv0E+Qx3xfHqvA8qEim2TcneL1BYyYtGj5Z77747kNjOeG2jEOxl3/62WaeuNgOnDEin/+9PfzLWuTAsdiIrCBx/WDFFfvrjHwvArmHOrOdMwtlkzqb1Jk8Qpoulj7bUyqdqqAHWwoX6FPtsr+9ROV/QmM4fatD+5PfeM8hirhZ7sjbiqz5V1c4xKv1ckpMzYGyHWBhXakQ5RTTQ+cMw+EBbELrG+fSq737X6P9hzB5g7HpoKsx4tXLi62uvG0gsrVTfX0U/TbzV/oSR5s+fL3ffdZeBEalVMz+BEmEghAFGrmuvv955c5r8Wsn1U6mlBuPhk9uwfr0UFzsXxLt0mZAjJmLO7NmyQEPYKL8WRgDbNWvWyNRZM6Vjda30UjhCS2tV/ZywaY0cfOpJpuy0y9LMtg2JXjnrYeX8x623yjjVMrZu3SolJSWJLnf6OXi21HW45n/+x9S9dL0WA2FAmA+rHmKfqAcWvuuOx5tl2kCbKHb5nqpHZF+Do9JcIyLC0D7a3Lp1a1mj8bWTddwOKi2XFkXFBtx19tZa+feXC+Xsyy4xVrx4/XP9GfP62Wefyd//9je5RyUfALowXljGEubrrMx31Xe+I6eedlogm4JzFdQuAhuwvVQrHoFshvk3DOqobQOVmGgXi52zAbDxJGTa720/XL/Shm6KHfqYCpD5WzerGlpugrRXaI35ioMGmqI5rtvU+HkwHkeMCVpEB/gICoiCWh20iyG2nbQRrQdnO+fqoFxRgUhAOxCoSXuqZQ81lEkKE7FLM0lUWgUE6Msvv5TioiLDhEjEoIh2sXNXqjvnk7nz5JiyNoL6OW7jKuk7YricowsqyPZhZHlb/awgEzyryOXMKypo0BtX7HxZ5jtDg70v/6//ChSsKjAJaAcETFEgvpcvX24c5GHaJe2iWaLMhzR85aWXZMy3vmXiWzHzB2Vp5Nn91Whwny50G3w9U8uajVEDTVBtIpoFZgMm/jUtlILEY6HbMbTzHfQrbULbwtEO8+U61CxVfwOVgDSOHR2jDEUO2dUxgJSozytMZM8sdXo+pAoPgd2oWBBhS64NHpyjqjVXboJabrvW1MkKZcNF3TvL6WeeKWCKuiQk3sSJE+X+e+81aV9UqIUYMztuLtuT6llEQp2h43S5+qPZ/IOmwBmQAWCiuu6xh/TQ3K8PdFFx7kI/DxsVaTvLysrMzj79ww/lbcUpwZwOM9CHTIs0pttPnkWi6gxd7B9XLpDltTWyr6qfnGVcFN5EiuBIf0dLxD2iPlQMLFO1LbgVGJ8wMh5jTEbO4Zqdc8WVV5qa7mFoZ5HuCMGFncdZeTjDf6kha0iYMKmjcZpqGJG0lQ7qsgCGg1Cx4cOHiysf4v333y/X/eQnRgJf/aMfGf9qro0JZJIg5bBeE9hejXFFz8RhUzUbzxfWbQxYt2uqExk6YWlv6BiQ3RUmJE4zH5iQibbnihKV2v005pUEToCpSEjOJUMghQDwPVoTdn+q4XSUB8jFwiI6iIKoqN4wHxZizlFoKbl4XmPmyfZvJB/HnJvVD0k4ZJgodAxoBwcmpPINkBJhl4S2zbyy00IsTs6H4ImM1IwLnL2oqHzm56I95qijjIsEBvTDoIDFsqamRnD4w2i4EQA8xqgC07HJBAGOZAY1w//YEH+kjvawMR/dCS0DshBe14mHCan94OeizXAe0/oZUrFIf9FiB8OVKTQEGQ0kJ2Mo4bxECFy2vsVbbr7ZMAbhfZnATzDOABoDnoWkwIWAeknYWI1KPtK2GpTx8o3pmCzmgDMfY3OIIlqHcQ2FlgHtAD6lZm2CpcMSN0q70iUWAoRUxGIKMwKWO0ijbIhBhAn5vK1KSJgSKemVmVBDieJH3U1FqJJYLbkeCQeh5k/X1CxqLeBK2LhhgzEsIe2gMC5a07Ak/zHetNtKvrAyH10INQPSQBbN2P/8x6hCBEznkzpK+xsTTnQIyxcMidOcxWIlZN9+/aRVq1aGQa30RO2zrg7OlEjP2LMlUswSUsz+jfSqV0ZiQZJ6VVVVJUQeLdLgAgIMkHB8hyUXKQfRrnxkOtN4/Y/xpQ9IvvMvuMCci+13YXwNPQMyaCwSwHoeUKsfuC75zoSxC4G+WULqwAhk6luGgPGseR/GwOKKHxDGjR0Hzp4w0gaVYFgmuS9nORgSRoSawPDNtJ68vsL8lvKZ4WwfeKXP9As1Hz8fSeBhp69nIcQtZYGgRrDrs8gwf4fMe5Lx6MUufvNeGQSGa0wYQThToiZa9bDxNbFMxXfcj3vFu1/j3xbC34wP4WWAGYfBye5lTPNCAsZ2BAMBdQDHPv+8+TgfjQOx/YneZz8CVosgvOz7P/yhMz9s9i3XY4gfN3F5D4wNxEK2V8PFTX/+s3mNlSIu2xI9K/gRQPVGXf/1739vykb74Ypx2au8k4CxgwOO5G9/8xtZvGiR0f0jRowdncJ+j9QjCmmoYp9ep5nsXqzAYRyRvGZABpTQKIwzwM9zNoqYMIzLzN82xRpb8k3lbDwSeaeCNu4AxhnCjLprkuorGj1DRaTdxejQeCx2h79ROfGdEnhOBa58Uzkbz1HeS0DbIRzMxCk+cN99BmAJi2AkDe3o5P+rPeudpIwHQsGRGv8aVO6jn6NZMAxoBwWgJ4KGn3/uOSGRNmJCOzL5+4rK2V99euCdYul0lW3iYsQKjgEZNCsN/6Wo1x/gM9TPIkZ0sZz8fQaMR1geUPH494ZpJkMhSL3YUSpIBqSDhGMRUPzL//1fA5VAVEhE+TMCMB+bJnAl1GanPHRs+F3+9CR5SwuWAW23kYaPPPywPKbOewKP8zGdxvZld3iF8SAk3w+uvlpGK3x9ITKencuCZ0DbUbIGiKAB02XhjgIxsbGU9rroNZgRsEaWQZqtTi3EC1XqZIMhtgAAA5VJREFU5buF08tI7jYMaAeDUDaSfakPOE1xXThTROdDOzruX5F4+G8HDBxoGI9A6nwIovZrpHY7BmTgSHEC6xO3xT9vu80ko7ZVRoziSv1aVqnvA+ORlzhQcyLPPuccA/VI/l4hq5vxRmW3ZEA7EBbrZLyWRH5KoRfINIgY0Y5Obl7J11ur40ziMQYWHOr77Luv5wTk3LQquLvu1gxohx3Gm6LSEOAhmHH5smUmt4zvI/XUjlLmr9awwlhS3ekITZYFJwckOa+Z/5k/Pdy/jBhwx/ywSLCSopaC9wlEA6BEMCcUMeKOgUrjxTIe5+y9Fb2tjwLhjhgxwhS8yRYLJ41mhPrSiAEbTY8FKQII6l0N9EYq2uIiXBoxYqMBi/NnLONhXCFTAalHubeI8XYesIgBdx6Pnf6yzvynn3pKpk+bJitXrpQvlDEhICEio83XwwXTkR4ESO8eWmYAxzmMByzjHop6vrsZV74emeTvIgZMPj47fUucKcwIqBHvd3d/IkyHC4HAd8piDxgwwJzxiNncnVwJOy2SNP+IGDDNAeNya7SZM2eOVKqDn3MjsIlQofsVcZhbrFBcCJzpqFfYXSXeUUcfHUk6swq8/xcxoPexinsloW5k5K9Q9XSZWk/vu+cew4zLFQKwh6pi+VA3IW7HdnyI2wAgrErNLKnQgjCj1FE+AqTvLl2kU8eOBh6k0AKkk42H399FDOjjiHJmXLJkiXEwz9NaeQDePvv00/Kxlmlm8QIHCMygRS8Lk0HH4mlyjrOwiFWKmH3I4MEyUlXKIzT/rqsyHYYUKjBFZzp/Fk7EgP6MY9y7WIsqEhKG5N9cZUYk5SqVkFaVI10qFmowFwxqLZONn8MmUFRUZDYG6ldQpxF0AeDz+RcxXNyp9e3DiAF9G8rEN2Lx84+UKM5QMORSZUKsqovVoENtBpgRVY9XwHUtg4J/inSCQLm2BBIYErXxq/0eJgYnE0stNftaKto2Tm9Qt5HCWHF5BV0Oq2VH1Ek1pBChQpA6v4E5wySlbd8K6TViwABm0zIk0qi+vv6rikqA767Vmg2WOSlUCtNaBtzUKKeRir2WSpVpYqlcGQiyDNhOGcue26hBQboPBLOBtA3DRmqlGRKn/0UM6HS4vT3MMihXx6qM3n6961WxKm0k0XYdnyA/iRgwyNGPnr3bj0Dxbj8C0QBEIxDgCEQMGODgR4+ORiBiwGgNRCMQ4Aj8f+fgFvFmCEgJAAAAAElFTkSuQmCC;" vertex="1" parent="1">
          <mxGeometry x="590" y="223" width="74" height="74" as="geometry" />
        </mxCell>
        <mxCell id="GpMwV1XRbYQ0-7hNmBUH-11" style="edgeStyle=orthogonalEdgeStyle;rounded=0;orthogonalLoop=1;jettySize=auto;html=1;entryX=0;entryY=0.5;entryDx=0;entryDy=0;" edge="1" parent="1" source="GpMwV1XRbYQ0-7hNmBUH-2" target="GpMwV1XRbYQ0-7hNmBUH-1">
          <mxGeometry relative="1" as="geometry" />
        </mxCell>
        <mxCell id="GpMwV1XRbYQ0-7hNmBUH-2" value="" style="shape=image;verticalLabelPosition=bottom;labelBackgroundColor=default;verticalAlign=top;aspect=fixed;imageAspect=0;image=data:image/png,iVBORw0KGgoAAAANSUhEUgAAAMgAAADICAIAAAAiOjnJAAAPBUlEQVR4nOydf2wT5f/AW7pZGLOjE7K5DAfWIYMWM7rpWJTZkCxEh4hdcGKahYhkYRojGPQfUnCJMRpDlpD5hyEknZlWY2AL2UaiDubYLFkDzsE2CBlBrc5ldGm6VLjdnm++6Sf77DO758fdPb279v36kzz3ft73vhfPdffjfRkIIQMAKM0ytRMAUhMQC+ACiAVwAcQCuABiAVwAsQAugFgAF0AsgAsgFsAFEAvgAogFcAHEArgAYgFcALEALoBYABdALIALIBbABRAL4AKIBXABxAK4kKF2Anrlt99+6+vru3r16s2bN+/cuTM1NRWJRGZnZ1esWGGxWPLy8mw22+bNm8vLy7dt27Zy5Uq18002RnhLh4mhoaGvvvqqo6Pjxo0blJuYzebKykq32/3qq6+uXr2ac4KaAQEUiKL4zTffVFRUyCm12Wyur6+/du2a2nuTDEAsMu3t7Xa7Xan/ySaTae/evbdu3VJ7t/gCYuG4e/duTU2NUkotJCsry+v1CoKg9i7yAsRaEr/fb7VaeVg1zzPPPDM+Pq72jnIBxEqAKIoffPABV6XmWbVqVU9Pj9p7rDwg1mIEQairq0uOVXFMJlNbW5va+60wINb/cP/+/d27dyfTqlR1C8T6L2pZNe/W2bNn1a6BYsAF0v/w4MGDvXv3tre3q5hDdnb25cuXt2zZomIOSgFiGeRYZbVan3/++a1bt27YsCE3NzcjI0MQhD/++OP69es///xzIBAQBIEpYHFxcTAYfPjhh1kz0RxqL5nqI+EMaDQa3W53V1cX/kJUOBw+derUxo0bmYIfOnQoiXvPi3QXS4JVLpdraGiIfgpBEHw+X35+Pr21vb29PHc6GaS1WKxWmc3mU6dOSZtrenra7XZTTuRwOERRVHp3k0r6isVqldVq7evrkznpsWPHKKfz+/0K7ag6pKlYEqwKBoOKTH38+HGaGe12uyLTqUU6iqWiVXEaGhpo5tX1rZ60E0t1qxBCsVhs06ZNxKk9Ho+y8yaT9BJLC1bFGRgYMBqN+NktFkssFuMxexJII7G0Y1Wc2tpaYg4XLlzglwBX0uUtHdZr61ar9fvvv9+6dSu/lN5//33imJ6eHn4JcCUt3tLhbdXc3NyPP/7Y29sbDofXr1//8ssvP/7448StysrKHA7Hr7/+ihkzMDBAmYPmUHvJ5A7vM+CtW7fKy8sXRjCZTI2Njffv3ydu6/V6icnI23vVSHGxeFs1NjZWUFCQMFRdXR1x8wsXLhBTmpyclFcDdUhlsVS0Ks63336LjzA5OUnM6pdffpFdCRVIWbFUt8pgMOzatYsYZ/ny5fggOr1MmppiacEqg8FQWFhIDEWMc/78eXnFUIcUvNzA+2/AmzdvulyuUChEHDk3N6fIGD2SamJpxyqDwUDzkHEkEsEPWLFiBWVu2kLtJVNJNHIGnOe7777DB5yYmCAGuXr1quzCqEDqXCDV1FplMBh27979yiuv4McMDw8T42RmZg4ODobD4QcPHsQfNszNzS0oKKB/JFUd1DZbGbS2VlVVVUWjUWJY4gVSDBaLZfv27UePHu3s7NTgvepUEEunViGESktLJUm1GIvF8vrrr2vqwoTuxdKvVcFgUJJFODZt2nTmzBktNLHRt1j6tQoh5PF4JMlDprS09NKlS1KLqgw6FkvXVgUCAZPJJEkbWt54443p6Wmp1ZWLXsXStVWCIDgcDkm2sFFcXKzWrUZdiqVrqxBCjY2NkjyRgsViUaXXiP7E0rtVH3/8sSRDpKNKjySdiaV3qz755BNJbsgl+W7pSSywSg4mk+ncuXOSCi8F3YiV5lZlZ2c/9thjhYWFFotFThCmdiZy0IdY6WmV0+lsamq6dOnS1NTUwmhTU1M9PT1er/epp55ijblhw4ZIJMJSe4noQKx0s8poNHo8HsqlJRAI1NbWMl0SS07/La2LlW5WlZeXS/gmSiAQoL8wlpz+W5oWK92sOnz4sOTbfLFY7ODBg5QTlZaW8u6/pV2x0soqo9HY0tIiqU7/w4cffkg5I+/+WxoVK92sOn36tKQ6JYDSLYfDodSMCdGiWGCVTCjPifIbFGLQnFhglXwo+2/V19crPvU82hILrFKKvr4+Yv+tnJwcmgYT0tCQWGCVstD03/rhhx84za4VscAqxbl8+TIxk2PHjnGaXRNigVUY4p+j3rFjR35+fkFBQXV1Nf3zVU888QQ+merqavpMmFBfLLAKQzQafeGFF/4dp7a2lubnEfFznvn5+fTJMKGyWGAVhmg0WlVVtVS0t956ixihs7OTmBWn5+LVFAuswoC3Kh6Q+Cl8mve2b9y4QZ8VPaqJBVZhIFoV5+TJk/g4oihmZmbig3C6TKqOWGAVBkqrDAbDkSNHiNGIH+Ln9P60CmKBVRjorTIYDCdOnCAGfOSRR/BBUkQssAoDk1U0ToiiSHwGMBVOhWAVBlarKioqiDHv3r1LjKP7H+9gFQZWq4qKisbHx4lhz58/TwzF6RH4JIkFVmHgZBVC6OjRo/hQ+r5AClZh4GcVQqi4uBgfbefOnfSpMsFdLLAKA1er+vv7iQG9Xi99tkzwFQuswsDVKoRQwpuMi+DXRoujWGAVBt5W9fb2EmPm5OTw6/3HSyywCgNvq6LR6JNPPkkMe+DAAfqYrHARC6zCwNsqhND+/ftpIvf39zOFZUJ5sQRB2LNnD33hWK0aHx8HqzBQtvguKytjCsuK8mIx9S5ntWpqaqqoqIg+Pli1FLy//aSwWNPT01lZWZT7xmqVIAgul4v+wIBVS8F7uVJerO7ubsp9k/CN+BMnTtAfGLBqKUwmE9dfV3EUFuvMmTM0+ybBqmvXrtE36wGrMLz99ttMwaWhwoolwSpBEMrKyigLB1Zh2LhxI1NxJKOwWJFIJCcnB7NjEqxCCPl8PsrCgVUYLBYLp4dk/o3yfxVi2k1Ls0oQBJvNRlM4sAqDyWTq7Oxkii8HLtex9u3b9+8dy8vLk2AVQujs2bM0hausrASrliJ12nH7fD6n0xnvS5GXl3fo0KFQKCQt1I4dO4iFKywsnJiYoI8JVvGG79MNsVgsHA7LiRAKhWj+GOzq6qKPCVYlAfVfscfT0tJCrJ3b7aYPCFYlB62LVVNTQ6zdyMgIZTSwKmloWixRFFetWoUvH32/FLAqmWharJGREWIFfT4fTSiwKsloWqxz584Ri0jzxyBYlXw0LdZnn32GL6LNZiMG+fTTT+mPClilFJoW68iRI/g6vvjii/gIXV1dxB6v84BVCqJpsYj9yg8ePIiP4HQ6KY8KWKUsmharvr4eX83GxkbM5jSdC+KAVYqjabGILwU0NDRgNqd5BQqs4oSmxXrnnXfwNa2trcVsPjw8TDwqYBUnNC1WU1MTvqxbtmzBbC6KYn5+PmZzsIofmhbryy+/xFc2MzNzZmYGE+HkyZNglSpoWqwrV64Q69vd3Y2JIIpiXV1dwqMCVnFF02LNzMwQm/7u378fH0QQhObm5oXnRKfTyfQNGbBKApoWCyFUUVGBr3J2dva9e/eIcURRHB0dvXLlCuvzhmCVNLQuFk3R+X1pCKySjNbFCgaDxHJnZWXdvn1b8anBKjloXSyEEM3HQquqqpRt9QRWyUQHYmEuGSzk3XffVWpGsEo+OhDr3r17+Jdg51Gko2YkEgGr5KMDsZiOxOHDh+WcE0Oh0NNPPw1WyUcfYk1PT+Nvzixk+/btxO+tJaS9vZ1+FrAKjz7EYmrfEP878b333qN/hXVoaIipCyFYRUQ3YiGEdu3axXTss7KyPB5PR0fHUq/eh0KhL774wuVy0T9lClZRYvx/uXTC33//7XQ6f//9d9YNMzMzS0pKbDbbmjVrMjIyYrHYn3/+OTo6eufOHQlpFBUVXbx4cd26dfSbHD9+nL5rnMlkam1tfe211yTkpiHUNpuN/v7+5cuXq1guWKso0ZlYCCG/30/f2k9ZwCp69CcWQqitrS35boFVTOhSrPi6lcxzYnFxMVjFhF7FQggNDAwUFhby1Ok/VFdXszZjSnOr9C0WQmhiYoLYjkYOZrP5o48+EkWRKSuwSvdixWlra1uzZo3iVj377LPDw8OsyYBVcVJBrPjzCF6v12q1KqKU3W73+/2sCxVYtZAUEStONBptbm622+3SfDIajTU1NR0dHRKUAqsWkVJizRMMBpuamiorK81mM/EYW63WPXv2tLS0/PXXX5JnBKsWoadbOhL4559/RkdHr1+/HgqFJiYmZmZmYrHYypUrLRbLo48+un79+s2bN69bt27ZsmVyZknHOzZE1DZb98BalRAQSxZg1VKAWNIBqzCAWBIBq/CAWFIAq4iAWMyAVTSAWGyAVZSAWAyAVfSAWLSAVUyAWFSAVayAWGTAKgmAWAQoW5KAVYtI8ZvQMvnpp59cLpcoijSD0+XuMh0g1pLMzs7a7faxsTGawWDVImQ9LpLanD59GqySDKxYS1JSUjI6OkocBlYlBFasxIyMjIBVcgCxEnPx4kXiGLAKA4iVGOLnqMEqPCBWYiYnJ/ED3G43WIUBxErM3NwcfsDq1auTlYsuAbESk5ubix/g8/kGBgaSlY7+ALESY7PZ8AOi0ejOnTvBraUAsRLz3HPPEcdEIhFwayngAmli5ubm1q5dGwqFiCMtFkt3d/e2bduSkpdugBUrMcuWLXvzzTdpRsK6lRBYsZYkHA7bbLZwOEwzGNatRcCKtSRWq7W5uZlyMKxbiwCxcHg8ngMHDlAOBrcWAqdCArOzsx6P5+uvv6YcD+fEOLBiEcjIyGhtbU34KfyEwLoVB8QiA25JAMSiAtxiBX5jMSDh91ZfX5/D4eCclxYBsdhgdcvpdA4ODnJOSovAqZAN1nNiMBgEsQAqWN0KBAKcM9IiIJYUmNwSBIF/RpoDxJIIvVslJSVJyUhbwI93WRB/yxcUFNy+fVvdr8KqAqxYssCvW0aj8fPPP09Dq0AsBYi71dDQsOjfs7OzW1tbX3rpJZXyUhk4FSrG4OCg3+8fGxt76KGHysvL9+3bt3btWrWTUg0QC+ACnAoBLoBYABdALIALIBbABRAL4AKIBXABxAK4AGIBXACxAC6AWAAXQCyACyAWwAUQC+ACiAVwAcQCuABiAVz4vwAAAP//b8cbMGXTzMEAAAAASUVORK5CYII=;" vertex="1" parent="1">
          <mxGeometry x="350" y="220" width="80" height="80" as="geometry" />
        </mxCell>
        <mxCell id="GpMwV1XRbYQ0-7hNmBUH-15" style="edgeStyle=orthogonalEdgeStyle;rounded=0;orthogonalLoop=1;jettySize=auto;html=1;entryX=0;entryY=0.5;entryDx=0;entryDy=0;" edge="1" parent="1" source="GpMwV1XRbYQ0-7hNmBUH-5" target="GpMwV1XRbYQ0-7hNmBUH-2">
          <mxGeometry relative="1" as="geometry" />
        </mxCell>
        <mxCell id="GpMwV1XRbYQ0-7hNmBUH-5" value="" style="shape=image;verticalLabelPosition=bottom;labelBackgroundColor=default;verticalAlign=top;aspect=fixed;imageAspect=0;image=https://encrypted-tbn0.gstatic.com/images?q=tbn:ANd9GcRnM91o7r1wba01xcHW15PLqbe-ONaTIjOO3g&amp;s;" vertex="1" parent="1">
          <mxGeometry x="130" y="230" width="60.27" height="60" as="geometry" />
        </mxCell>
        <mxCell id="GpMwV1XRbYQ0-7hNmBUH-6" value="MCP clients (eg: Claude)&lt;br&gt;Talks to Volatility3 with natural language interface&amp;nbsp;" style="text;html=1;align=center;verticalAlign=middle;whiteSpace=wrap;rounded=0;" vertex="1" parent="1">
          <mxGeometry x="60.14" y="297" width="200" height="43" as="geometry" />
        </mxCell>
        <mxCell id="GpMwV1XRbYQ0-7hNmBUH-7" value="Volatility3 MCP Bridge Solution" style="text;html=1;align=center;verticalAlign=middle;whiteSpace=wrap;rounded=0;" vertex="1" parent="1">
          <mxGeometry x="290" y="297" width="200" height="23" as="geometry" />
        </mxCell>
        <mxCell id="GpMwV1XRbYQ0-7hNmBUH-8" value="Wrapper written around Volatility3" style="text;html=1;align=center;verticalAlign=middle;whiteSpace=wrap;rounded=0;" vertex="1" parent="1">
          <mxGeometry x="530.5" y="300" width="193" height="20" as="geometry" />
        </mxCell>
        <mxCell id="GpMwV1XRbYQ0-7hNmBUH-16" value="&quot;Analyse this memory&quot;" style="text;html=1;align=center;verticalAlign=middle;whiteSpace=wrap;rounded=0;" vertex="1" parent="1">
          <mxGeometry x="207" y="240" width="130" height="20" as="geometry" />
        </mxCell>
        <mxCell id="GpMwV1XRbYQ0-7hNmBUH-17" value="Decides the tool to run and asks Volatility3" style="text;html=1;align=center;verticalAlign=middle;whiteSpace=wrap;rounded=0;" vertex="1" parent="1">
          <mxGeometry x="440" y="233" width="130" height="20" as="geometry" />
        </mxCell>
      </root>
    </mxGraphModel>
  </diagram>
</mxfile>
